<?xml version="1.0" encoding="UTF-8" ?>
<svg id="Layer_1" data-name="Layer 1" xmlns="http://www.w3.org/2000/svg" viewBox="0 0 2421.82 1023.42">
    <defs>
        <style>
            .cls-1 {
                fill: #030302;
            }

            .cls-2 {
                fill: #c7112a;
            }
        </style>
    </defs>
    <path class="cls-1" d="M1332.79,594.54c-7.98-23.68-35.92-19.47-35.03,5.53,5.81.07,8.58-6.61,14.51-7.06,15.3-1.16,12.34,23.65,4.44,27.52-12.23,5.99-33.09-7.67-41.96-15.94-5.05-4.7-5.71-5.53-4.88-12.91,1.52-13.4,6.85-22.59,5.87-38.09-.54-8.64-5.58-18.23,0-26.02,5.21-7.27,9.26-2.52,16.07-3.94,16.83-3.5,18.53-27.89,2.21-33.32-17.22-5.73-29.76,13.49-19.27,27.76-7.14-1.5-11.42,12.88-15.48,12.99-1.1.03-15.72-9.28-19.17-10.84-8.14-3.68-23.79-5.68-24.3-16.73-.18-3.99,3.54-6.39,2.94-10.41-20.79.55-6.74,22.06-9.2,30.28-.52,1.75-11.17,9.67-13.63,13.38-3.92,5.92-5.49,15.5-7.21,22.3-12.86-4.07-17.46-9.36-32.01-6.52-29.63,5.78-37.74,41.89-11.62,53.72,10.16,4.6,26.23.51,28.67-11.17-9.7,1.27-16.53,6.56-25.51-.99-15.65-13.15,4.9-38.22,23.85-20.85,27.65,25.34-15.22,73.01-36.61,88.05-13.24,9.31-26.53,14.2-40.39,21.61-10.51,5.62-14.87,14.33-28.56,7.9-19.45-9.14-14.57-38.27-14.73-55.28-.06-6.66-1.84-15.17-2.08-21.91-.56-16.17,1.97-30.33,3.03-46.05,1.11-16.44-2.47-28.06,6.38-43.62,10.13-17.82,45.56-36.09,65.32-29.06,2.72.97,17.87,8.65,19.8,10.2,9.96,7.94-3.05,25.52-12.04,16.04-3.55-3.74-3.21-7.95-9.12-10.88-16.06-7.96-32.27,10.22-22.78,24.78,8.56,13.14,28.58,9.29,31.47-5.95,12.67,11.19,28.77,3.58,30.88-12.61.32-2.46-.43-9.12.27-10.23.28-.45,7.37-3.94,9.17-5.33,11.76-9.07,22.49-25.4,10.51-39.18-4.12-4.74-18.37-8.29-16.84-2.17.43,1.73,11.11,5.03,10.94,11.89-.45,18.22-25.63,19.9-37.99,13.17-11.7-6.37-.47-16.61,1.75-26.35,2.62-11.52,2.45-23.36-.67-34.73-4.73-17.22-20.49-31.1-10.43-50.37,8.45-16.18,28.14-1.82,21.1,6.62-1.1,1.32-8.51,3.99-7.7,5.76.93,2.02,5.55,1.75,7.51,1.54,11.81-1.28,14.72-17,8.47-25.52-6.98-9.52-22.85-9.52-3.67-18.68,14.39-6.87,46.09-18.76,54.15,2.19,4.57,11.89-7.61,24.11-18.4,18.4-3.01-1.59-7.79-11.76-10.07-9.41-1.49,1.53,1.84,10.28,3.16,12.33,6.67,10.41,20.96,11.9,30.78,5.1,19.66-13.62,7.22-47.5-13.39-54.49-3.7-1.25-15.51-1.85-16.63-3.62-1.59-15.25-2.17-33.01-16.58-42.17-17.18-10.92-39.85,1.76-31.13,23.13,4.8,11.78,23.95,17.44,29.79,3.71-8.13-.05-20.44,3.74-20.93-8.59-.53-13.07,17.71-13.67,22.99.03,4.08,10.6,2.39,22.32-6.04,30.06-8.86,8.14-46.73,30.92-57.78,31.24-12.15.35-4.77-15.23-12.75-16.73-4.46-.84-1.18,2.66-1.41,6.46-.82,13.5-28.42,13.83-37,8.95-8.56-4.87-10.46-25.9-10.06-34.92.5-11.26,7.24-41.57,13.15-50.84,7.14-11.21,31.22-21.67,40.69-9.01,10.77,14.39-6.12,25.18-14.85,16.56-1.64-1.62-4.65-7.9-5.02-8.21-2.49-2.1-3.06,4.77-2.92,6.35,1.07,12.12,12.93,19.06,24.35,17.55,12.59-1.66,19.67-19.35,15.79-30.62-2.17-6.29-12.86-14.84-6.72-19.31l16.51-6.98c-3.3,16.59,12.99,29.85,27.5,18.99,9.39-7.03,8.72-21.54-1.15-27.83-7.12-4.54-13.32-3.87-20.32.35,3.87-2.46,4.83-16.68,6.94-18.05,3.43-2.22,11.58-.18,17.48-6.52,6.05-6.52,5.37-21.28-3.08-25.8-12.25-6.55,2.53,15.96-5.38,19.33-12.25,5.21-19.86-11.55-26.97-17.98-8.06-7.3-19.62-11.98-30.51-12.29-4.01-.11-10.18,2.19-14.48.28-5.44-2.42-2.8-20.98-13.67-27.33-7.8-4.55-16.88-2.68-21.79,4.9-6.26,9.66,6.08,3.49,9.85,3.97,7.29.92,11.51,14.07,10.52,20.42-.97,6.27-14.83,21.06-18.74,28.26-6.97,12.84-4.15,32.96-5.21,47.79-.92,12.98-3.21,43.82-14.05,51.95-1.51,1.13-4.28,2.68-6.2,2.39-2.96-.44-12.63-6.63-15.21-8.86-13.73-11.9-30.32-53.19,1.47-51.98-3.03-7.7-9.83-9.12-17.44-7.92-9.39,1.47-11.96,14.77-16.27,15.78-3.09.73-12.65-6.08-17.88-6.76-10.96-1.43-33.28,4.89-39.28-6.71-6.57-12.7,10.62-11.17,12.7-14.53,4.13-6.68-12.92-5.67-17.79-2.31-7.58,5.24-1.68,14.39-4.97,19.03-3.26,4.62-9.72,1.22-13.56,1.36-3.93.15-8.93,3.94-10.72,7.36-.98,1.87-4.83,12.7-.31,11.7,3.96-3.25,8.94-9.76,13.98-10.08,4.3-.27,15.87,3.25,17.8,7.32,2.43,5.13-4.41,13.92-5.15,20.37-.51,4.42,1.45,11.47.94,13.69-.12.5-5.31,3.74-6.79,7.47-7.54,18.96,15.45,32.64,28.27,19.27,5.85-6.11,3.18-12.52,4.63-14.88.18-.3,3.98-1.45,5.18-2.32,4.7-3.41,8.63-9.91,7.15-15.84-6.31-.52-7.77,10.09-17.78,7.81-.59-.13-8.38-3.94-8.72-4.28-4.86-4.92.06-16.53,4-21.03,7.92-9.06,18.23-9.65,29-5.96,20.65,7.07,23.01,28.88,37.48,43.52,12.54,12.67,36.05,16.91,36.43,38.35l-5.03,32.46c-6,1.97-5.93-3.72-8.86-7.35-9.85-12.21-26.79-11.92-32,3.49,8.08,1.88,18.13-4.38,21.54,6.96,2.25,7.49-.67,11.66-6.63,15.46-18.4,11.76-19.71-6-30.27-16.06-15.78-15.04-35.08-7.67-52.88-13.62-17.19-5.75-7.08-14.96-11.77-23.08-2.7-4.67-7.21,8.47-7.55,10.31-.93,5.04-1.13,10.18,1.34,14.75,2.82,5.21,8.44,6.29,3.2,13.8-3.65,5.23-18.33,18.5-24.56,19.44-14.15,2.15-20.78-16.7-11.96-22.97,1.93-1.37,13.52-3.34,11.52-5.96-17.84-6.8-33.89,6.06-27.72,25.21,2.27,7.04,14.17,19.08-.21,22.35-9.82,2.23-10.08-4.81-18.07-6.56-.32,17.01,16.14,22.7,29.51,14.02-.97,6.3-1.42,11.13,2.49,16.47,15.29,20.86,45.33-6.59,24.04-24.04-1.74-1.43-4.22-1.37-5.04-3.44,6.39.68,19.56-12.51,24.36-10.93,2.27.75,3.1,16.97,11.15,22.91,14.59,10.77,36.08-5.2,31.03-21.04-2.83-8.88-6.75,3.97-8.09,6-5.79,8.8-16.89,6.61-18.36-4.54-2.36-17.86,13.2-30.92,29.82-20.83,20.66,12.54,14.15,46.16,17.2,66.8,6.12,41.37,47.34,43.85,50.87,95.13,2,29.01,3.36,82.89-9.13,108.85-10.04,20.85-18.63,11.95-32.76,1.04-27.25-21.02-84.46-75.05-57.92-112.73,10.55-14.99,40.13-18.88,48.56-.9,8.98,19.14-11.41,30.71-20.76,10.76-1.36-2.91-2.47-13.3-5.76-7.81-6.57,10.97,1.58,28.39,13.78,31.3-.94,4.02-5.77,5.86-6.77,10.71-4.17,20.21,20.31,30.59,31.2,14.2,6.14-9.23,1.78-20.26-7.41-25.43,12.21-10.08,15.38-21.56,10.7-36.72-4.94-15.98-19.09-22.53-32.19-30.81-2.75-3.66.4-8.33-.74-13.27-.97-4.19-8.34-9.96-12.78-9.7-1.02,5.53,3.88,12.68,1.05,17.55-2.21,3.79-27.61,18.69-33.52,23.47-12.85,10.37-24.18,30.17-43.77,24.71-7.37-2.05-14.13-9.38-10.84-17.32,2.13-5.13,9.65-5.85,10.07-6.43,1.35-1.82-3-3.68-4.56-3.93-15.38-2.4-19.26,12.97-17.2,25.2,2.28,13.54,21.06,20.28,33.18,18.65,5.29-.71,10.61-5.36,16.33-1.65l16.27,50.26c.01,1.14-.25,2.23-.74,3.25-2.04,4.19-20.79,4.69-26.5,6.51-12.87,4.1-28.55,26.76-28.39,40.05.15,12.92,7.78,26.06,20.61,29.68-18.52,21.3,17.77,43.58,28.19,19.67,4.84-11.11-2.67-15.88-2.05-19.05.22-1.14,4.27-3.54,5.71-5.28,5.07-6.12,7.2-15.54,3-22.7-1.66-2.83-6.29-7.54-9.85-6.65-.57,4.73.78,11.02,0,15.5-.81,4.65-6.15,7.4-10.53,7.54-21.51.71-26.82-32.14-4.01-40.08,41.19-14.33,62.85,29.19,88.01,52.06,37.83,34.39,50.63,41.85,47.52,98.46-1.11,20.08-3.94,24.43-11.46,41.54-11.28,25.67-1.01,39.89-2.5,64.51-.21,3.46-1.7,12.67-5.41,15.51,0,4.05-1.75,8.04-5.31,10.16,34.55,9.27,70.14,11.02,105.15,5.17-.58-.25-1.11-.56-1.62-.89-4.54-1.61-7.08-5.77-7.53-10.15-8.62-17.29-.83-34.84-1.27-52.87-1.04-42.49-19.05-93.6,21.48-126.44,31.72-25.69,53.89,4.5,83.99,6.96,7.92.65,15.84-.07,23.48-1.98-3.65,18.4,19.5,30.23,31,14.49,8.67-11.87-.64-27.94-14.99-27.5,1.29-3.92,4.1-7.08,5.31-11.18,3.33-11.29.06-26.56-9.82-33.81-11.91-8.74-32.5-3.51-30.55,13.53.98,8.59,7.46-2.75,10.68-4.41,13.46-6.94,21.88,11.11,15.01,23.01-11.52,19.98-41.13,3.29-54.95-6.33-5.15-3.58-12.84-8.12-8.53-15.15,20.84-25.61,34.53-58.03,67.16-70.84,22.69-8.9,46-4.51,49.42,22.94,1.84,14.74-12.1,19.18-18.95,7.95-1.84-3.01-3.33-13.23-6.67-8.08-9.84,15.19,16.97,38.68,34.52,21.02,7.81-7.86,5.45-18.71,7.4-28.61,9.19.8,18.12,3.85,27.45,2.95,21.66-2.08,28.81-24.96,22.55-43.53ZM1288.25,494.77c6.52,0,11.81,5.29,11.81,11.81s-5.29,11.81-11.81,11.81-11.81-5.29-11.81-11.81,5.29-11.81,11.81-11.81ZM1114.91,537.55c-6.59,0-11.93-5.34-11.93-11.93s5.34-11.93,11.93-11.93,11.93,5.34,11.93,11.93-5.34,11.93-11.93,11.93ZM1141.61,223.63c6.58,0,11.92,5.33,11.92,11.92s-5.33,11.92-11.92,11.92-11.92-5.33-11.92-11.92,5.33-11.92,11.92-11.92ZM1100.74,178.59c11.85,5.24-.33,7.38-.99,14.48,5.44,2.25,16.91-1.72,19.89,2.62,4.55,6.64,5.5,26.74-4.65,28.19-13.11,1.87-21.52-16.7-17.23-27.8-6.41.71-11.16-4.84-17.76-5.79-4.4-.63-12.62,1.03-12.25,6.78,4.78-1.18,11.23,4.35,13.43,8.08,1.13,1.92,9.13,20.15,9.41,21.67.94,5.14-3.18,6.71-7.58,7.02-1.95.14-3.73-.99-5.62-.72-9.14,1.28-22.92,8.69-24.63-6.55-3.11-27.64,17.63-61.42,47.98-47.98ZM924.69,295.08c0,6.59-5.34,11.94-11.94,11.94s-11.94-5.34-11.94-11.94,5.34-11.94,11.94-11.94,11.94,5.34,11.94,11.94ZM880.77,421.58c0,6.64-5.38,12.01-12.01,12.01s-12.01-5.38-12.01-12.01,5.38-12.01,12.01-12.01,12.01,5.38,12.01,12.01ZM956.21,595.13c-13.34-.93-13.34-20.06-2.72-22.8,18.89-4.88,22.76,24.2,2.72,22.8ZM874.25,687.77c6.52,0,11.81,5.29,11.81,11.81s-5.29,11.81-11.81,11.81-11.81-5.29-11.81-11.81,5.29-11.81,11.81-11.81ZM1013.94,445.77c-5.63,13.41-18.69,14.61-28.83,4.96-22.38-21.3,4.64-51.27,23.74-63.05,3.44-2.12,6.27-4.64,6.95.87,1.59,12.92,2.9,45.92-1.85,57.23ZM1041.9,483.43c-8.36-10.16.65-32.09.89-44.81.27-14.02-7.47-47.33,3.43-57.57,8.26-7.76,28.62-6.07,39.02-6.98,5.6-.49,21.47-4.45,25.51-2.49,1.12.54,1.89,1.77,2,3.02.11,1.23-2.37,15.1-2.92,16.05-2.05,3.51-16.58,6.39-21.43,8.57-7.21,3.25-14.37,8.1-17.12,15.88-7.25,20.52,5.97,44.29,29.17,34.17,10.28-4.48,14.45-13.45,15.32-24.19,1.84-.32,3.04,1.25,3.86,2.63,2.09,3.52,2.68,18.54,2.15,22.89-1.02,8.37-11.89,17.4-19.04,20.95-6.4,3.18-37.37,15.08-43.71,16.29-6.05,1.15-12.98.62-17.12-4.41ZM1100.28,437.11c-18.66,10.56-24.77-18.16-5.94-20.94,2.19-.32,12.38-.4,13.28,1.03,1.18,1.88-5.57,17.03-7.34,19.9ZM1219.46,731.29c22.13-5.03,20.96,27.91.03,22.54-9.87-2.54-10.12-20.25-.03-22.54ZM1247.26,588.09l-43.03,14.89c-7.45-1.29-4.72-6.27-5.58-11.3-.99-5.83-5.19-14.76,1.83-18.37,5.19-2.67,13.27-.49,15.27-7.22-12.82-.4-16.18-5.79-12.28-17.79,4.91-15.08,23.27-16.04,35.95-10.39,21.79,9.71,25.76,34.35,7.84,50.18Z" />
    <path class="cls-2" d="M1126.96,525.2c0,6.63-5.37,12-12,12s-12-5.37-12-12,5.37-12,12-12,12,5.37,12,12ZM1120.76,525.71c0-3.12-2.53-5.64-5.64-5.64s-5.64,2.53-5.64,5.64,2.53,5.64,5.64,5.64,5.64-2.53,5.64-5.64Z" />
    <path class="cls-2" d="M1299.96,506.2c0,6.63-5.37,12-12,12s-12-5.37-12-12,5.37-12,12-12,12,5.37,12,12ZM1294.3,506.77c0-3.33-2.7-6.03-6.03-6.03s-6.03,2.7-6.03,6.03,2.7,6.03,6.03,6.03,6.03-2.7,6.03-6.03Z" />
    <path class="cls-2" d="M953.49,572.33c18.89-4.88,22.76,24.2,2.72,22.8-13.34-.93-13.34-20.06-2.72-22.8ZM964.39,583.67c0-3.6-2.91-6.51-6.51-6.51s-6.51,2.91-6.51,6.51,2.91,6.51,6.51,6.51,6.51-2.91,6.51-6.51Z" />
    <path class="cls-2" d="M880.96,421.2c0,6.63-5.37,12-12,12s-12-5.37-12-12,5.37-12,12-12,12,5.37,12,12ZM866.46,415.28c-5.1,1.53-6.42,10.96-1.02,12.6,14.17,4.31,12.43-16.03,1.02-12.6Z" />
    <path class="cls-2" d="M885.96,699.2c0,6.63-5.37,12-12,12s-12-5.37-12-12,5.37-12,12-12,12,5.37,12,12ZM881.08,699.65c0-3.73-3.03-6.76-6.76-6.76s-6.76,3.03-6.76,6.76,3.03,6.76,6.76,6.76,6.76-3.03,6.76-6.76Z" />
    <path class="cls-2" d="M924.96,295.2c0,6.63-5.37,12-12,12s-12-5.37-12-12,5.37-12,12-12,12,5.37,12,12ZM919.89,295.25c0-3.88-3.14-7.02-7.02-7.02s-7.02,3.14-7.02,7.02,3.14,7.02,7.02,7.02,7.02-3.14,7.02-7.02Z" />
    <path class="cls-2" d="M1219.46,731.29c22.13-5.03,20.96,27.91.03,22.54-9.87-2.54-10.12-20.25-.03-22.54ZM1231.73,742.7c0-4.25-3.44-7.69-7.69-7.69s-7.69,3.44-7.69,7.69,3.44,7.69,7.69,7.69,7.69-3.44,7.69-7.69Z" />
    <path class="cls-2" d="M1153.96,235.2c0,6.63-5.37,12-12,12s-12-5.37-12-12,5.37-12,12-12,12,5.37,12,12ZM1149.8,235.84c0-4.5-3.65-8.15-8.15-8.15s-8.15,3.65-8.15,8.15,3.65,8.15,8.15,8.15,8.15-3.65,8.15-8.15Z" />
</svg>